<?xml version="1.0" encoding="UTF-8"?>
<!-- Generator: Adobe Illustrator 16.0.0, SVG Export Plug-In . SVG Version: 6.00 Build 0)  -->
<!DOCTYPE svg PUBLIC "-//W3C//DTD SVG 1.1//EN" "http://www.w3.org/Graphics/SVG/1.1/DTD/svg11.dtd">
<svg version="1.1" xmlns="http://www.w3.org/2000/svg" xmlns:xlink="http://www.w3.org/1999/xlink" x="0px" y="0px" width="150px" height="596px" viewBox="0 0 150 596" enable-background="new 0 0 150 596" xml:space="preserve">
<g id="Layer_2" display="none">
	<g display="inline">
		<rect x="13" y="9" fill="#E8E8E8" width="26" height="26"/>
		<rect x="63" y="9" fill="#E8E8E8" width="26" height="26"/>
		<rect x="112" y="9" fill="#E8E8E8" width="26" height="26"/>
	</g>
	<g display="inline">
		<rect x="13" y="49" fill="#E8E8E8" width="26" height="26"/>
		<rect x="63" y="49" fill="#E8E8E8" width="26" height="26"/>
		<rect x="112" y="49" fill="#E8E8E8" width="26" height="26"/>
	</g>
	<g display="inline">
		<rect x="13" y="89" fill="#E8E8E8" width="26" height="26"/>
		<rect x="63" y="89" fill="#E8E8E8" width="26" height="26"/>
		<rect x="112" y="89" fill="#E8E8E8" width="26" height="26"/>
	</g>
	<g display="inline">
		<rect x="13" y="129" fill="#E8E8E8" width="26" height="26"/>
		<rect x="63" y="129" fill="#E8E8E8" width="26" height="26"/>
		<rect x="112" y="129" fill="#E8E8E8" width="26" height="26"/>
	</g>
	<g display="inline">
		<rect x="13" y="169" fill="#E8E8E8" width="26" height="26"/>
		<rect x="63" y="169" fill="#E8E8E8" width="26" height="26"/>
		<rect x="112" y="169" fill="#E8E8E8" width="26" height="26"/>
	</g>
	<g display="inline">
		<rect x="13" y="209" fill="#E8E8E8" width="26" height="26"/>
		<rect x="63" y="209" fill="#E8E8E8" width="26" height="26"/>
		<rect x="112" y="209" fill="#E8E8E8" width="26" height="26"/>
	</g>
	<g display="inline">
		<rect x="13" y="249" fill="#E8E8E8" width="26" height="26"/>
		<rect x="63" y="249" fill="#E8E8E8" width="26" height="26"/>
		<rect x="112" y="249" fill="#E8E8E8" width="26" height="26"/>
	</g>
	<g display="inline">
		<rect x="13" y="289" fill="#E8E8E8" width="26" height="26"/>
		<rect x="63" y="289" fill="#E8E8E8" width="26" height="26"/>
		<rect x="112" y="289" fill="#E8E8E8" width="26" height="26"/>
	</g>
	<g display="inline">
		<rect x="13" y="329" fill="#E8E8E8" width="26" height="26"/>
		<rect x="63" y="329" fill="#E8E8E8" width="26" height="26"/>
		<rect x="112" y="329" fill="#E8E8E8" width="26" height="26"/>
	</g>
	<g display="inline">
		<rect x="13" y="369" fill="#E8E8E8" width="26" height="26"/>
		<rect x="63" y="369" fill="#E8E8E8" width="26" height="26"/>
		<rect x="112" y="369" fill="#E8E8E8" width="26" height="26"/>
	</g>
	<g display="inline">
		<rect x="13" y="409" fill="#E8E8E8" width="26" height="26"/>
		<rect x="63" y="409" fill="#E8E8E8" width="26" height="26"/>
		<rect x="112" y="409" fill="#E8E8E8" width="26" height="26"/>
	</g>
	<g display="inline">
		<rect x="13" y="449" fill="#E8E8E8" width="26" height="26"/>
		<rect x="63" y="449" fill="#E8E8E8" width="26" height="26"/>
		<rect x="112" y="449" fill="#E8E8E8" width="26" height="26"/>
	</g>
</g>
<g id="Layer_1">
	<g>
		<path fill="#FFC425" d="M68,430.5c-0.827,0-1.5-0.673-1.5-1.5v-16c0-0.827,0.673-1.5,1.5-1.5h16c0.827,0,1.5,0.673,1.5,1.5v16    c0,0.827-0.673,1.5-1.5,1.5H68z"/>
		<path fill="#FFC425" d="M84,412c0.552,0,1,0.448,1,1v16c0,0.552-0.448,1-1,1H68c-0.551,0-1-0.448-1-1v-16c0-0.552,0.449-1,1-1H84     M84,411H68c-1.104,0-2,0.896-2,2v16c0,1.104,0.896,2,2,2h16c1.104,0,2-0.896,2-2v-16C86,411.896,85.104,411,84,411L84,411z"/>
	</g>
	<g>
		<path fill="#FFC425" d="M76.5,389.183c-0.519-0.388-1.306-0.683-2.5-0.683h-7c-0.827,0-1.5-0.673-1.5-1.5v-12    c0-0.827,0.673-1.5,1.5-1.5h8c0.248,0.003,1.5,0.089,1.5,1.5V389.183z"/>
		<path fill="#FFC425" d="M74.992,374c0.461,0.013,1.008,0.197,1.008,1v13.339c-0.53-0.21-1.188-0.339-2-0.339h-7    c-0.551,0-1-0.448-1-1v-12c0-0.552,0.449-1,1-1H74.992 M75,373h-8c-1.104,0-2,0.896-2,2v12c0,1.104,0.896,2,2,2c0,0,4,0,7,0    s3,2,3,2v-16C77,373,75,373,75,373L75,373z"/>
	</g>
	<g>
		<path fill="#FFC425" d="M76.5,375c0-1.411,1.252-1.497,1.503-1.5H86c0.827,0,1.5,0.673,1.5,1.5v12c0,0.827-0.673,1.5-1.5,1.5h-7    c-1.194,0-1.981,0.295-2.5,0.683V375z"/>
		<path fill="#FFC425" d="M86,374c0.552,0,1,0.448,1,1v12c0,0.552-0.448,1-1,1h-7c-0.812,0-1.47,0.129-2,0.339V375    c0-0.806,0.55-0.988,1-1H86 M86,373h-8c0,0-2,0-2,2v16c0,0,0-2,3-2s7,0,7,0c1.104,0,2-0.896,2-2v-12C88,373.896,87.104,373,86,373    L86,373z"/>
	</g>
	<g>
		<defs>
			<circle id="SVGID_1_" cx="76" cy="21.25" r="11"/>
		</defs>
		<use xlink:href="#SVGID_1_" overflow="visible" fill-rule="evenodd" clip-rule="evenodd" fill="#FFC425"/>
		<clipPath id="SVGID_2_">
			<use xlink:href="#SVGID_1_" overflow="visible"/>
		</clipPath>
		<g clip-path="url(#SVGID_2_)">
			<path fill="#FFC425" d="M76,31.75c-5.79,0-10.5-4.71-10.5-10.5s4.71-10.5,10.5-10.5c5.79,0,10.5,4.71,10.5,10.5     S81.79,31.75,76,31.75z"/>
			<path fill="#FFC425" d="M76,11.25c5.514,0,10,4.486,10,10s-4.486,10-10,10c-5.514,0-10-4.486-10-10S70.486,11.25,76,11.25      M76,10.25c-6.075,0-11,4.925-11,11s4.925,11,11,11c6.073,0,11-4.924,11-11C87,15.175,82.075,10.25,76,10.25L76,10.25z"/>
		</g>
	</g>
	<path fill="#FFC425" d="M87,350c0,1.104-0.896,2-2,2H67c-1.104,0-2-0.896-2-2v-18c0-1.104,0.896-2,2-2h18c1.104,0,2,0.896,2,2V350z   "/>
	<g>
		<path fill="#111111" d="M134,331c0.552,0,1,0.448,1,1v18c0,0.552-0.448,1-1,1h-18c-0.552,0-1-0.448-1-1v-18c0-0.552,0.448-1,1-1    H134 M134,330h-18c-1.104,0-2,0.896-2,2v18c0,1.104,0.896,2,2,2h18c1.104,0,2-0.896,2-2v-18C136,330.896,135.104,330,134,330    L134,330z"/>
	</g>
	<g>
		<path fill="#FFC425" d="M89,228c0,1.104-0.896,2-2,2H65c-1.104,0-2-0.896-2-2v-15c0-1.104,0.896-2,2-2h22c1.104,0,2,0.896,2,2V228    z"/>
	</g>
	<g>
		<path fill="#FFFFFF" d="M37,212c0.551,0,1,0.449,1,1v15c0,0.552-0.449,1-1,1H15c-0.551,0-1-0.448-1-1v-15c0-0.551,0.449-1,1-1H37     M37,211H15c-1.104,0-2,0.896-2,2v15c0,1.104,0.896,2,2,2h22c1.104,0,2-0.896,2-2v-15C39,211.896,38.104,211,37,211L37,211z"/>
	</g>
	<g>
		<defs>
			<ellipse id="SVGID_3_" cx="31.567" cy="220.5" rx="3.47" ry="4.857"/>
		</defs>
		<clipPath id="SVGID_4_">
			<use xlink:href="#SVGID_3_" overflow="visible"/>
		</clipPath>
		
			<use xlink:href="#SVGID_3_" overflow="visible" fill-rule="evenodd" clip-rule="evenodd" fill="none" stroke="#FFFFFF" stroke-miterlimit="10"/>
	</g>
	<line fill="none" stroke="#FFFFFF" stroke-miterlimit="10" x1="17.116" y1="225.381" x2="23.883" y2="225.381"/>
	<line fill="none" stroke="#FFFFFF" stroke-miterlimit="10" x1="17.116" y1="222.381" x2="23.883" y2="222.381"/>
	<line fill="none" stroke="#FFFFFF" stroke-miterlimit="10" x1="17.116" y1="219.382" x2="23.883" y2="219.382"/>
	<line fill="none" stroke="#FFFFFF" stroke-miterlimit="10" x1="17.116" y1="216.382" x2="23.883" y2="216.382"/>
	<path fill="#FFC425" stroke="#FFC425" stroke-miterlimit="10" d="M69.349,131.5c-1.05,0-1.902,0.849-1.902,1.901v17.198   c0,1.05,0.852,1.901,1.902,1.901H82.71c1.05,0,1.902-0.849,1.902-1.901v-17.198c0-1.05-0.852-1.901-1.902-1.901H69.349z"/>
	<g>
		<defs>
			<ellipse id="SVGID_5_" cx="76" cy="19.25" rx="4" ry="5"/>
		</defs>
		<clipPath id="SVGID_6_">
			<use xlink:href="#SVGID_5_" overflow="visible"/>
		</clipPath>
		<ellipse clip-path="url(#SVGID_6_)" fill="none" stroke="#111111" stroke-miterlimit="10" cx="76" cy="19.25" rx="4" ry="5"/>
		
			<use xlink:href="#SVGID_5_" overflow="visible" fill-rule="evenodd" clip-rule="evenodd" fill="none" stroke="#111111" stroke-miterlimit="10"/>
	</g>
	<g>
		<defs>
			<rect id="SVGID_7_" x="70" y="135" width="12" height="1"/>
		</defs>
		<use xlink:href="#SVGID_7_" overflow="visible" fill-rule="evenodd" clip-rule="evenodd" fill="#111111"/>
		<clipPath id="SVGID_8_">
			<use xlink:href="#SVGID_7_" overflow="visible"/>
		</clipPath>
		
			<rect x="65" y="130" clip-path="url(#SVGID_8_)" fill-rule="evenodd" clip-rule="evenodd" fill="#111111" width="22" height="11"/>
	</g>
	<g>
		<defs>
			<rect id="SVGID_9_" x="70" y="138" width="12" height="1"/>
		</defs>
		<use xlink:href="#SVGID_9_" overflow="visible" fill-rule="evenodd" clip-rule="evenodd" fill="#111111"/>
		<clipPath id="SVGID_10_">
			<use xlink:href="#SVGID_9_" overflow="visible"/>
		</clipPath>
		
			<rect x="65" y="133" clip-path="url(#SVGID_10_)" fill-rule="evenodd" clip-rule="evenodd" fill="#111111" width="22" height="11"/>
	</g>
	<g>
		<defs>
			<rect id="SVGID_11_" x="78" y="141" width="4" height="1"/>
		</defs>
		<use xlink:href="#SVGID_11_" overflow="visible" fill-rule="evenodd" clip-rule="evenodd" fill="#111111"/>
		<clipPath id="SVGID_12_">
			<use xlink:href="#SVGID_11_" overflow="visible"/>
		</clipPath>
		
			<rect x="73" y="136" clip-path="url(#SVGID_12_)" fill-rule="evenodd" clip-rule="evenodd" fill="#111111" width="14" height="11"/>
	</g>
	<g>
		<defs>
			<rect id="SVGID_13_" x="78" y="145" width="4" height="1"/>
		</defs>
		<use xlink:href="#SVGID_13_" overflow="visible" fill-rule="evenodd" clip-rule="evenodd" fill="#111111"/>
		<clipPath id="SVGID_14_">
			<use xlink:href="#SVGID_13_" overflow="visible"/>
		</clipPath>
		
			<rect x="73" y="140" clip-path="url(#SVGID_14_)" fill-rule="evenodd" clip-rule="evenodd" fill="#111111" width="14" height="11"/>
	</g>
	<g>
		<defs>
			<rect id="SVGID_15_" x="70" y="141" width="6" height="5"/>
		</defs>
		<clipPath id="SVGID_16_">
			<use xlink:href="#SVGID_15_" overflow="visible"/>
		</clipPath>
		
			<rect x="70" y="141" clip-path="url(#SVGID_16_)" fill="none" stroke="#000000" stroke-width="2" stroke-miterlimit="10" width="6" height="5"/>
	</g>
	<g>
		<defs>
			<rect id="SVGID_17_" x="70" y="148" width="12" height="1"/>
		</defs>
		<use xlink:href="#SVGID_17_" overflow="visible" fill-rule="evenodd" clip-rule="evenodd" fill="#111111"/>
		<clipPath id="SVGID_18_">
			<use xlink:href="#SVGID_17_" overflow="visible"/>
		</clipPath>
		
			<rect x="65" y="143" clip-path="url(#SVGID_18_)" fill-rule="evenodd" clip-rule="evenodd" fill="#111111" width="22" height="11"/>
	</g>
	<g>
		<defs>
			<path id="SVGID_19_" d="M74.414,264.452c-5.23,1.648,0.375,6.669-4.414,3.544s-3.542-2.396-5.12-3.322     c-2.474-1.451-3.88-3.308-3.88-6.033c0-4.22,4.029-7.641,9-7.641c0.4,0,0.795,0.022,1.181,0.065     c4.413,0.491,7.819,3.695,7.819,7.575C79,261.499,77.31,263.539,74.414,264.452z"/>
		</defs>
		<use xlink:href="#SVGID_19_" overflow="visible" fill-rule="evenodd" clip-rule="evenodd" fill="#FFC425"/>
		<clipPath id="SVGID_20_">
			<use xlink:href="#SVGID_19_" overflow="visible"/>
		</clipPath>
		<path clip-path="url(#SVGID_20_)" fill="#FFC425" stroke="#FFC425" stroke-miterlimit="10" d="M74.414,264.452    c-5.23,1.648,0.375,6.669-4.414,3.544s-3.542-2.396-5.12-3.322c-2.474-1.451-3.88-3.308-3.88-6.033c0-4.22,4.029-7.641,9-7.641    c0.4,0,0.795,0.022,1.181,0.065c4.413,0.491,7.819,3.695,7.819,7.575C79,261.499,77.31,263.539,74.414,264.452z"/>
		
			<use xlink:href="#SVGID_19_" overflow="visible" fill-rule="evenodd" clip-rule="evenodd" fill="none" stroke="#FFC425" stroke-miterlimit="10"/>
	</g>
	<g>
		<defs>
			<path id="SVGID_21_" d="M75.591,347.305c-1.655,0-2.852-1.058-2.852-2.328c0-1.246,1.483-2.282,3.139-2.265     c0.387,0.004,0.747,0.067,1.074,0.174c0.898,0.631,1.543,0.987,1.725,1.706c0.034,0.146,0.053,0.296,0.053,0.449     C78.729,346.312,77.918,347.305,75.591,347.305z M76.026,339.853c-1.111-0.034-2.168-1.255-2.359-2.728     c-0.191-1.474,0.553-2.601,1.664-2.567s2.168,1.216,2.359,2.688C77.882,338.72,77.137,339.886,76.026,339.853     C76.026,339.853,77.137,339.886,76.026,339.853z M78.33,342.034c-0.39-0.279-1.135-0.956-1.135-1.354     c0-0.467,0.132-0.697,0.827-1.246c0.714-0.562,1.219-1.323,1.219-2.244c0-1.095-0.483-2.133-1.391-2.485h1.368L80.184,334H75.87     c-1.934,0-3.754,1.449-3.754,3.162c0,1.751,1.318,3.148,3.286,3.148c0.137,0,0.27-0.01,0.399-0.02     c-0.128,0.247-0.219,0.521-0.219,0.81c0,0.486,0.259,0.879,0.587,1.201c-0.248,0-0.486,0.007-0.747,0.007     c-2.396,0-4.239,1.539-4.239,3.136c0,1.572,2.021,2.556,4.416,2.556c2.73,0,4.239-1.563,4.239-3.137     C79.839,343.603,79.47,342.847,78.33,342.034C78.33,342.034,79.47,342.847,78.33,342.034z"/>
		</defs>
		<use xlink:href="#SVGID_21_" overflow="visible" fill-rule="evenodd" clip-rule="evenodd" fill="#111111"/>
		<clipPath id="SVGID_22_">
			<use xlink:href="#SVGID_21_" overflow="visible"/>
		</clipPath>
		
			<rect x="66.184" y="329" clip-path="url(#SVGID_22_)" fill-rule="evenodd" clip-rule="evenodd" fill="#111111" width="19" height="24"/>
	</g>
	<g>
		<defs>
			<circle id="SVGID_23_" cx="125" cy="21.25" r="11"/>
		</defs>
		<clipPath id="SVGID_24_">
			<use xlink:href="#SVGID_23_" overflow="visible"/>
		</clipPath>
		
			<circle clip-path="url(#SVGID_24_)" fill="none" stroke="#000000" stroke-width="2" stroke-miterlimit="10" cx="125" cy="21.25" r="11"/>
	</g>
	<g>
		<defs>
			<ellipse id="SVGID_25_" cx="125" cy="19.25" rx="4" ry="5"/>
		</defs>
		<clipPath id="SVGID_26_">
			<use xlink:href="#SVGID_25_" overflow="visible"/>
		</clipPath>
		
			<ellipse clip-path="url(#SVGID_26_)" fill="none" stroke="#000000" stroke-width="2" stroke-miterlimit="10" cx="125" cy="19.25" rx="4" ry="5"/>
	</g>
	<path fill="none" stroke="#000000" stroke-miterlimit="10" d="M118.319,131.5c-1.05,0-1.902,0.849-1.902,1.901v17.198   c0,1.05,0.852,1.901,1.902,1.901h13.361c1.05,0,1.902-0.849,1.902-1.901v-17.198c0-1.05-0.852-1.901-1.902-1.901H118.319z"/>
	<g>
		<defs>
			<rect id="SVGID_27_" x="119" y="135" width="12" height="1"/>
		</defs>
		<clipPath id="SVGID_28_">
			<use xlink:href="#SVGID_27_" overflow="visible"/>
		</clipPath>
		<rect x="114" y="130" clip-path="url(#SVGID_28_)" fill-rule="evenodd" clip-rule="evenodd" width="22" height="11"/>
	</g>
	<g>
		<defs>
			<rect id="SVGID_29_" x="119" y="138" width="12" height="1"/>
		</defs>
		<clipPath id="SVGID_30_">
			<use xlink:href="#SVGID_29_" overflow="visible"/>
		</clipPath>
		<rect x="114" y="133" clip-path="url(#SVGID_30_)" fill-rule="evenodd" clip-rule="evenodd" width="22" height="11"/>
	</g>
	<g>
		<defs>
			<rect id="SVGID_31_" x="127" y="141" width="4" height="1"/>
		</defs>
		<clipPath id="SVGID_32_">
			<use xlink:href="#SVGID_31_" overflow="visible"/>
		</clipPath>
		<rect x="122" y="136" clip-path="url(#SVGID_32_)" fill-rule="evenodd" clip-rule="evenodd" width="14" height="11"/>
	</g>
	<g>
		<defs>
			<rect id="SVGID_33_" x="127" y="145" width="4" height="1"/>
		</defs>
		<clipPath id="SVGID_34_">
			<use xlink:href="#SVGID_33_" overflow="visible"/>
		</clipPath>
		<rect x="122" y="140" clip-path="url(#SVGID_34_)" fill-rule="evenodd" clip-rule="evenodd" width="14" height="11"/>
	</g>
	<rect x="119.5" y="141.5" fill="none" stroke="#000000" stroke-miterlimit="10" width="5" height="4"/>
	<rect x="119.5" y="141.5" fill-rule="evenodd" clip-rule="evenodd" fill="none" width="5" height="4"/>
	<g>
		<defs>
			<rect id="SVGID_35_" x="119" y="148" width="12" height="1"/>
		</defs>
		<clipPath id="SVGID_36_">
			<use xlink:href="#SVGID_35_" overflow="visible"/>
		</clipPath>
		<rect x="114" y="143" clip-path="url(#SVGID_36_)" fill-rule="evenodd" clip-rule="evenodd" width="22" height="11"/>
	</g>
	<path fill="none" stroke="#FFFFFF" stroke-miterlimit="10" d="M18.319,131.5c-1.05,0-1.902,0.849-1.902,1.901v17.198   c0,1.05,0.852,1.901,1.902,1.901h13.361c1.05,0,1.902-0.849,1.902-1.901v-17.198c0-1.05-0.852-1.901-1.902-1.901H18.319z"/>
	<g>
		<defs>
			<rect id="SVGID_37_" x="19" y="135" width="12" height="1"/>
		</defs>
		<use xlink:href="#SVGID_37_" overflow="visible" fill-rule="evenodd" clip-rule="evenodd" fill="#FFFFFF"/>
		<clipPath id="SVGID_38_">
			<use xlink:href="#SVGID_37_" overflow="visible"/>
		</clipPath>
		
			<rect x="14" y="130" clip-path="url(#SVGID_38_)" fill-rule="evenodd" clip-rule="evenodd" fill="#FFFFFF" width="22" height="11"/>
	</g>
	<g>
		<defs>
			<rect id="SVGID_39_" x="19" y="138" width="12" height="1"/>
		</defs>
		<use xlink:href="#SVGID_39_" overflow="visible" fill-rule="evenodd" clip-rule="evenodd" fill="#FFFFFF"/>
		<clipPath id="SVGID_40_">
			<use xlink:href="#SVGID_39_" overflow="visible"/>
		</clipPath>
		
			<rect x="14" y="133" clip-path="url(#SVGID_40_)" fill-rule="evenodd" clip-rule="evenodd" fill="#FFFFFF" width="22" height="11"/>
	</g>
	<g>
		<defs>
			<rect id="SVGID_41_" x="27" y="141" width="4" height="1"/>
		</defs>
		<use xlink:href="#SVGID_41_" overflow="visible" fill-rule="evenodd" clip-rule="evenodd" fill="#FFFFFF"/>
		<clipPath id="SVGID_42_">
			<use xlink:href="#SVGID_41_" overflow="visible"/>
		</clipPath>
		
			<rect x="22" y="136" clip-path="url(#SVGID_42_)" fill-rule="evenodd" clip-rule="evenodd" fill="#FFFFFF" width="14" height="11"/>
	</g>
	<g>
		<defs>
			<rect id="SVGID_43_" x="27" y="145" width="4" height="1"/>
		</defs>
		<use xlink:href="#SVGID_43_" overflow="visible" fill-rule="evenodd" clip-rule="evenodd" fill="#FFFFFF"/>
		<clipPath id="SVGID_44_">
			<use xlink:href="#SVGID_43_" overflow="visible"/>
		</clipPath>
		
			<rect x="22" y="140" clip-path="url(#SVGID_44_)" fill-rule="evenodd" clip-rule="evenodd" fill="#FFFFFF" width="14" height="11"/>
	</g>
	<rect x="19.5" y="141.5" fill="none" stroke="#000000" stroke-miterlimit="10" width="5" height="4"/>
	
		<rect x="19.5" y="141.5" fill-rule="evenodd" clip-rule="evenodd" fill="none" stroke="#FFFFFF" stroke-miterlimit="10" width="5" height="4"/>
	<g>
		<defs>
			<rect id="SVGID_45_" x="19" y="148" width="12" height="1"/>
		</defs>
		<use xlink:href="#SVGID_45_" overflow="visible" fill-rule="evenodd" clip-rule="evenodd" fill="#FFFFFF"/>
		<clipPath id="SVGID_46_">
			<use xlink:href="#SVGID_45_" overflow="visible"/>
		</clipPath>
		
			<rect x="14" y="143" clip-path="url(#SVGID_46_)" fill-rule="evenodd" clip-rule="evenodd" fill="#FFFFFF" width="22" height="11"/>
	</g>
	<g>
		<defs>
			<path id="SVGID_47_" d="M126.096,267.947c5.812,1.831-0.417,7.41,4.904,3.938s3.936-2.662,5.688-3.691     c2.749-1.612,4.312-3.675,4.312-6.703c0-4.689-4.478-8.49-10-8.49c-0.444,0-0.883,0.024-1.312,0.072     c-4.902,0.546-8.688,4.106-8.688,8.418C121,264.666,122.878,266.933,126.096,267.947z"/>
		</defs>
		<clipPath id="SVGID_48_">
			<use xlink:href="#SVGID_47_" overflow="visible"/>
		</clipPath>
		<path clip-path="url(#SVGID_48_)" fill="none" stroke="#000000" stroke-width="2" stroke-miterlimit="10" d="M126.096,267.947    c5.812,1.832-0.417,7.41,4.904,3.938s3.936-2.662,5.688-3.691c2.749-1.612,4.312-3.675,4.312-6.703c0-4.689-4.478-8.49-10-8.49    c-0.444,0-0.883,0.024-1.312,0.072c-4.902,0.546-8.688,4.106-8.688,8.418C121,264.666,122.878,266.933,126.096,267.947z"/>
	</g>
	<g>
		<defs>
			<path id="SVGID_49_" d="M123.414,264.452c-5.23,1.648,0.375,6.669-4.414,3.544s-3.542-2.396-5.12-3.322     c-2.474-1.451-3.88-3.308-3.88-6.033c0-4.22,4.029-7.641,9-7.641c0.4,0,0.795,0.022,1.181,0.065     c4.413,0.491,7.819,3.695,7.819,7.575C128,261.499,126.31,263.539,123.414,264.452z"/>
		</defs>
		<clipPath id="SVGID_50_">
			<use xlink:href="#SVGID_49_" overflow="visible"/>
		</clipPath>
		<path clip-path="url(#SVGID_50_)" fill="none" stroke="#000000" stroke-width="2" stroke-miterlimit="10" d="M123.414,264.452    c-5.23,1.648,0.375,6.669-4.414,3.544s-3.542-2.396-5.12-3.322c-2.474-1.451-3.88-3.308-3.88-6.033c0-4.22,4.029-7.641,9-7.641    c0.4,0,0.795,0.022,1.181,0.065c4.413,0.491,7.819,3.695,7.819,7.575C128,261.499,126.31,263.539,123.414,264.452z"/>
	</g>
	<g>
		<defs>
			<path id="SVGID_51_" d="M27.096,267.947c5.812,1.831-0.417,7.41,4.904,3.938s3.936-2.662,5.688-3.691     c2.749-1.612,4.312-3.675,4.312-6.703c0-4.689-4.478-8.49-10-8.49c-0.444,0-0.883,0.024-1.312,0.072     C25.785,253.618,22,257.179,22,261.49C22,264.666,23.878,266.933,27.096,267.947z"/>
		</defs>
		<clipPath id="SVGID_52_">
			<use xlink:href="#SVGID_51_" overflow="visible"/>
		</clipPath>
		<path clip-path="url(#SVGID_52_)" fill="none" stroke="#FFFFFF" stroke-miterlimit="10" d="M27.096,267.947    c5.812,1.832-0.417,7.41,4.904,3.938s3.936-2.662,5.688-3.691c2.749-1.612,4.312-3.675,4.312-6.703c0-4.689-4.478-8.49-10-8.49    c-0.444,0-0.883,0.024-1.312,0.072C25.785,253.618,22,257.179,22,261.49C22,264.666,23.878,266.933,27.096,267.947z"/>
		
			<use xlink:href="#SVGID_51_" overflow="visible" fill-rule="evenodd" clip-rule="evenodd" fill="none" stroke="#FFFFFF" stroke-miterlimit="10"/>
	</g>
	<g>
		<defs>
			<path id="SVGID_53_" d="M24.414,264.452c-5.23,1.648,0.375,6.669-4.414,3.544s-3.542-2.396-5.12-3.322     c-2.474-1.451-3.88-3.308-3.88-6.033c0-4.22,4.029-7.641,9-7.641c0.4,0,0.795,0.022,1.181,0.065     c4.413,0.491,7.819,3.695,7.819,7.575C29,261.499,27.31,263.539,24.414,264.452z"/>
		</defs>
		<clipPath id="SVGID_54_">
			<use xlink:href="#SVGID_53_" overflow="visible"/>
		</clipPath>
		<path clip-path="url(#SVGID_54_)" fill="none" stroke="#FFFFFF" stroke-miterlimit="10" d="M24.414,264.452    c-5.23,1.648,0.375,6.669-4.414,3.544s-3.542-2.396-5.12-3.322c-2.474-1.451-3.88-3.308-3.88-6.033c0-4.22,4.029-7.641,9-7.641    c0.4,0,0.795,0.022,1.181,0.065c4.413,0.491,7.819,3.695,7.819,7.575C29,261.499,27.31,263.539,24.414,264.452z"/>
		
			<use xlink:href="#SVGID_53_" overflow="visible" fill-rule="evenodd" clip-rule="evenodd" fill="none" stroke="#FFFFFF" stroke-miterlimit="10"/>
	</g>
	<g>
		<defs>
			<path id="SVGID_63_" d="M131.827,297.081c-0.904-2.939-3.701-5.081-7.014-5.081c-4.044,0-7.322,3.188-7.322,7.128     c0,0.348,0.028,0.694,0.078,1.03c-0.193-0.023-0.39-0.039-0.591-0.039c-2.749,0-4.979,2.172-4.979,4.846     c0,2.676,2.226,5.043,4.975,5.043h15.961c3.64,0,6.594-3.069,6.594-6.609c0-3.541-2.95-6.409-6.59-6.409     C132.561,296.989,132.188,297.021,131.827,297.081z"/>
		</defs>
		<clipPath id="SVGID_55_">
			<use xlink:href="#SVGID_63_" overflow="visible"/>
		</clipPath>
		<g clip-path="url(#SVGID_55_)">
			<path fill="#111111" d="M124.813,292.995c2.776,0,5.27,1.8,6.062,4.378l0.256,0.831l0.857-0.142     c0.315-0.052,0.636-0.078,0.95-0.078c3.085,0,5.595,2.429,5.595,5.414c0,3.044-2.563,5.614-5.599,5.614h-15.961     c-2.157,0-3.979-1.854-3.979-4.048c0-2.123,1.787-3.851,3.983-3.851c0.141,0,0.294,0.01,0.471,0.031l1.295,0.157l-0.19-1.29     c-0.045-0.302-0.067-0.6-0.067-0.885C118.486,295.746,121.324,292.995,124.813,292.995 M124.813,292     c-4.044,0-7.322,3.188-7.322,7.128c0,0.348,0.028,0.694,0.078,1.03c-0.193-0.023-0.39-0.039-0.591-0.039     c-2.749,0-4.979,2.172-4.979,4.846c0,2.676,2.226,5.043,4.975,5.043h15.961c3.64,0,6.594-3.069,6.594-6.609     c0-3.541-2.95-6.409-6.59-6.409c-0.379,0-0.751,0.032-1.112,0.092C130.923,294.142,128.126,292,124.813,292L124.813,292z"/>
		</g>
	</g>
	<g>
		<defs>
			<path id="SVGID_65_" d="M32.221,297.078C31.316,294.141,28.52,292,25.207,292c-4.044,0-7.322,3.188-7.322,7.122     c0,0.35,0.028,0.695,0.078,1.032c-0.193-0.021-0.39-0.037-0.591-0.037c-2.749,0-4.979,2.169-4.979,4.843     c0,2.673,2.226,5.04,4.975,5.04h15.961c3.64,0,6.594-3.067,6.594-6.607c0-3.539-2.95-6.407-6.59-6.407     C32.954,296.985,32.582,297.018,32.221,297.078z"/>
		</defs>
		<clipPath id="SVGID_56_">
			<use xlink:href="#SVGID_65_" overflow="visible"/>
		</clipPath>
		<g clip-path="url(#SVGID_56_)">
			<path fill="#FFFFFF" d="M25.207,292.994c2.777,0,5.27,1.8,6.063,4.377l0.256,0.832l0.859-0.145     c0.313-0.052,0.632-0.079,0.948-0.079c3.085,0,5.595,2.429,5.595,5.413c0,3.043-2.564,5.613-5.599,5.613H17.368     c-2.157,0-3.98-1.853-3.98-4.046c0-2.122,1.787-3.849,3.984-3.849c0.164,0,0.324,0.014,0.481,0.031l1.282,0.143l-0.188-1.276     c-0.045-0.303-0.067-0.601-0.067-0.887C18.879,295.743,21.718,292.994,25.207,292.994 M25.207,292     c-4.044,0-7.322,3.188-7.322,7.122c0,0.35,0.028,0.695,0.078,1.032c-0.193-0.021-0.39-0.037-0.591-0.037     c-2.749,0-4.979,2.169-4.979,4.843c0,2.673,2.226,5.04,4.975,5.04h15.961c3.64,0,6.594-3.067,6.594-6.607     c0-3.539-2.95-6.407-6.59-6.407c-0.379,0-0.751,0.032-1.112,0.093C31.316,294.141,28.52,292,25.207,292L25.207,292z"/>
		</g>
	</g>
	<g>
		<defs>
			<path id="SVGID_67_" d="M82.26,297.064c-0.904-2.93-3.701-5.064-7.014-5.064c-4.044,0-7.322,3.179-7.322,7.102     c0,0.351,0.028,0.694,0.078,1.031c-0.193-0.021-0.39-0.037-0.591-0.037c-2.749,0-4.979,2.161-4.979,4.828     c0,2.666,2.226,5.026,4.975,5.026h15.961c3.64,0,6.594-3.06,6.594-6.589s-2.95-6.39-6.59-6.39     C82.993,296.972,82.621,297.003,82.26,297.064z"/>
		</defs>
		<use xlink:href="#SVGID_67_" overflow="visible" fill-rule="evenodd" clip-rule="evenodd" fill="#FFC425"/>
		<clipPath id="SVGID_57_">
			<use xlink:href="#SVGID_67_" overflow="visible"/>
		</clipPath>
		<g clip-path="url(#SVGID_57_)">
			<path fill="#FFC425" d="M67.407,309.454c-2.427,0-4.478-2.075-4.478-4.53c0-2.389,2.011-4.332,4.482-4.332     c0.183,0,0.36,0.015,0.536,0.034l0.64,0.071l-0.094-0.637c-0.048-0.327-0.073-0.649-0.073-0.959c0-3.642,3.062-6.605,6.826-6.605     c2.993,0,5.683,1.939,6.539,4.715l0.129,0.416l0.429-0.073c0.334-0.057,0.681-0.086,1.029-0.086c3.359,0,6.094,2.645,6.094,5.894     c0,3.303-2.793,6.093-6.098,6.093H67.407z"/>
			<path fill="#FFC425" d="M75.246,292.993c2.777,0,5.271,1.795,6.064,4.364l0.257,0.832l0.859-0.146     c0.307-0.053,0.624-0.079,0.945-0.079c3.086,0,5.597,2.421,5.597,5.396c0,3.033-2.564,5.596-5.601,5.596H67.407     c-2.158,0-3.981-1.847-3.981-4.033c0-2.114,1.788-3.835,3.985-3.835c0.164,0,0.324,0.014,0.481,0.031l1.281,0.142l-0.188-1.274     c-0.045-0.303-0.067-0.601-0.067-0.886C68.917,295.733,71.756,292.993,75.246,292.993 M75.246,292     c-4.044,0-7.322,3.179-7.322,7.102c0,0.351,0.028,0.694,0.078,1.031c-0.193-0.021-0.39-0.037-0.591-0.037     c-2.749,0-4.979,2.161-4.979,4.828c0,2.666,2.226,5.026,4.975,5.026h15.961c3.64,0,6.594-3.06,6.594-6.589s-2.95-6.39-6.59-6.39     c-0.379,0-0.751,0.031-1.112,0.093C81.355,294.135,78.559,292,75.246,292L75.246,292z"/>
		</g>
	</g>
	<g>
		<defs>
			<path id="SVGID_58_" d="M124.591,347.305c-1.655,0-2.852-1.058-2.852-2.328c0-1.246,1.483-2.282,3.139-2.265     c0.387,0.004,0.747,0.067,1.074,0.174c0.898,0.631,1.543,0.987,1.725,1.706c0.034,0.146,0.053,0.296,0.053,0.449     C127.729,346.312,126.918,347.305,124.591,347.305z M125.026,339.853c-1.111-0.034-2.168-1.255-2.359-2.728     c-0.191-1.474,0.553-2.601,1.664-2.567s2.168,1.216,2.359,2.688C126.882,338.72,126.137,339.886,125.026,339.853     C125.026,339.853,126.137,339.886,125.026,339.853z M127.33,342.034c-0.39-0.279-1.135-0.956-1.135-1.354     c0-0.467,0.132-0.697,0.827-1.246c0.714-0.562,1.219-1.323,1.219-2.244c0-1.095-0.483-2.133-1.391-2.485h1.368l0.965-0.704     h-4.313c-1.934,0-3.754,1.449-3.754,3.162c0,1.751,1.318,3.148,3.286,3.148c0.137,0,0.27-0.01,0.399-0.02     c-0.128,0.247-0.219,0.521-0.219,0.81c0,0.486,0.259,0.879,0.587,1.201c-0.248,0-0.486,0.007-0.747,0.007     c-2.396,0-4.239,1.539-4.239,3.136c0,1.572,2.021,2.556,4.416,2.556c2.73,0,4.239-1.563,4.239-3.137     C128.839,343.603,128.47,342.847,127.33,342.034C127.33,342.034,128.47,342.847,127.33,342.034z"/>
		</defs>
		<clipPath id="SVGID_59_">
			<use xlink:href="#SVGID_58_" overflow="visible"/>
		</clipPath>
		<rect x="115.184" y="329" clip-path="url(#SVGID_59_)" fill-rule="evenodd" clip-rule="evenodd" width="19" height="24"/>
	</g>
	<g>
		<defs>
			<path id="SVGID_60_" d="M124.591,347.305c-1.655,0-2.852-1.058-2.852-2.328c0-1.246,1.483-2.282,3.139-2.265     c0.387,0.004,0.747,0.067,1.074,0.174c0.898,0.631,1.543,0.987,1.725,1.706c0.034,0.146,0.053,0.296,0.053,0.449     C127.729,346.312,126.918,347.305,124.591,347.305z M125.026,339.853c-1.111-0.034-2.168-1.255-2.359-2.728     c-0.191-1.474,0.553-2.601,1.664-2.567s2.168,1.216,2.359,2.688C126.882,338.72,126.137,339.886,125.026,339.853     C125.026,339.853,126.137,339.886,125.026,339.853z M127.33,342.034c-0.39-0.279-1.135-0.956-1.135-1.354     c0-0.467,0.132-0.697,0.827-1.246c0.714-0.562,1.219-1.323,1.219-2.244c0-1.095-0.483-2.133-1.391-2.485h1.368l0.965-0.704     h-4.313c-1.934,0-3.754,1.449-3.754,3.162c0,1.751,1.318,3.148,3.286,3.148c0.137,0,0.27-0.01,0.399-0.02     c-0.128,0.247-0.219,0.521-0.219,0.81c0,0.486,0.259,0.879,0.587,1.201c-0.248,0-0.486,0.007-0.747,0.007     c-2.396,0-4.239,1.539-4.239,3.136c0,1.572,2.021,2.556,4.416,2.556c2.73,0,4.239-1.563,4.239-3.137     C128.839,343.603,128.47,342.847,127.33,342.034C127.33,342.034,128.47,342.847,127.33,342.034z"/>
		</defs>
		<clipPath id="SVGID_61_">
			<use xlink:href="#SVGID_60_" overflow="visible"/>
		</clipPath>
		<rect x="115.184" y="329" clip-path="url(#SVGID_61_)" fill-rule="evenodd" clip-rule="evenodd" width="19" height="24"/>
	</g>
	<g>
		<defs>
			<circle id="SVGID_62_" cx="26" cy="21.25" r="11"/>
		</defs>
		<clipPath id="SVGID_64_">
			<use xlink:href="#SVGID_62_" overflow="visible"/>
		</clipPath>
		<circle clip-path="url(#SVGID_64_)" fill="none" stroke="#FFFFFF" stroke-miterlimit="10" cx="26" cy="21.25" r="11"/>
		
			<use xlink:href="#SVGID_62_" overflow="visible" fill-rule="evenodd" clip-rule="evenodd" fill="none" stroke="#FFFFFF" stroke-miterlimit="10"/>
	</g>
	<g>
		<defs>
			<ellipse id="SVGID_66_" cx="26" cy="19.25" rx="4" ry="5"/>
		</defs>
		<clipPath id="SVGID_68_">
			<use xlink:href="#SVGID_66_" overflow="visible"/>
		</clipPath>
		<ellipse clip-path="url(#SVGID_68_)" fill="none" stroke="#FFFFFF" stroke-miterlimit="10" cx="26" cy="19.25" rx="4" ry="5"/>
		
			<use xlink:href="#SVGID_66_" overflow="visible" fill-rule="evenodd" clip-rule="evenodd" fill="none" stroke="#FFFFFF" stroke-miterlimit="10"/>
	</g>
	<g>
		<defs>
			<path id="SVGID_69_" d="M25.591,347.305c-1.655,0-2.852-1.058-2.852-2.328c0-1.246,1.483-2.282,3.139-2.265     c0.387,0.004,0.747,0.067,1.074,0.174c0.898,0.631,1.543,0.987,1.725,1.706c0.034,0.146,0.053,0.296,0.053,0.449     C28.729,346.312,27.918,347.305,25.591,347.305z M26.026,339.853c-1.111-0.034-2.168-1.255-2.359-2.728     c-0.191-1.474,0.553-2.601,1.664-2.567s2.168,1.216,2.359,2.688C27.882,338.72,27.137,339.886,26.026,339.853     C26.026,339.853,27.137,339.886,26.026,339.853z M28.33,342.034c-0.39-0.279-1.135-0.956-1.135-1.354     c0-0.467,0.132-0.697,0.827-1.246c0.714-0.562,1.219-1.323,1.219-2.244c0-1.095-0.483-2.133-1.391-2.485h1.368L30.184,334H25.87     c-1.934,0-3.754,1.449-3.754,3.162c0,1.751,1.318,3.148,3.286,3.148c0.137,0,0.27-0.01,0.399-0.02     c-0.128,0.247-0.219,0.521-0.219,0.81c0,0.486,0.259,0.879,0.587,1.201c-0.248,0-0.486,0.007-0.747,0.007     c-2.396,0-4.239,1.539-4.239,3.136c0,1.572,2.021,2.556,4.416,2.556c2.73,0,4.239-1.563,4.239-3.137     C29.839,343.603,29.47,342.847,28.33,342.034C28.33,342.034,29.47,342.847,28.33,342.034z"/>
		</defs>
		<use xlink:href="#SVGID_69_" overflow="visible" fill-rule="evenodd" clip-rule="evenodd" fill="#FFFFFF"/>
		<clipPath id="SVGID_70_">
			<use xlink:href="#SVGID_69_" overflow="visible"/>
		</clipPath>
		
			<rect x="16.184" y="329" clip-path="url(#SVGID_70_)" fill-rule="evenodd" clip-rule="evenodd" fill="#FFFFFF" width="19" height="24"/>
	</g>
	<g>
		<line fill="none" stroke="#111111" stroke-miterlimit="10" x1="116.049" y1="225.381" x2="122.816" y2="225.381"/>
		<line fill="none" stroke="#111111" stroke-miterlimit="10" x1="116.049" y1="222.381" x2="122.816" y2="222.381"/>
		<line fill="none" stroke="#111111" stroke-miterlimit="10" x1="116.049" y1="219.382" x2="122.816" y2="219.382"/>
		<line fill="none" stroke="#111111" stroke-miterlimit="10" x1="116.049" y1="216.382" x2="122.816" y2="216.382"/>
	</g>
	<g>
		<defs>
			<ellipse id="SVGID_71_" cx="82.6" cy="220.5" rx="3.571" ry="5"/>
		</defs>
		<clipPath id="SVGID_72_">
			<use xlink:href="#SVGID_71_" overflow="visible"/>
		</clipPath>
	</g>
	<line fill="none" stroke="#111111" stroke-miterlimit="10" x1="68.148" y1="225.381" x2="74.916" y2="225.381"/>
	<line fill="none" stroke="#111111" stroke-miterlimit="10" x1="68.148" y1="222.381" x2="74.916" y2="222.381"/>
	<line fill="none" stroke="#111111" stroke-miterlimit="10" x1="68.148" y1="219.382" x2="74.916" y2="219.382"/>
	<line fill="none" stroke="#111111" stroke-miterlimit="10" x1="68.148" y1="216.382" x2="74.916" y2="216.382"/>
	<rect x="120.054" y="409" fill="#111111" width="0.915" height="4"/>
	<rect x="130.054" y="409.001" fill="#111111" width="0.931" height="3.941"/>
	<rect x="126.491" y="416.436" fill="none" stroke="#111111" stroke-miterlimit="10" width="5.024" height="5.062"/>
	<rect x="77.485" y="417.436" fill="none" stroke="#111111" stroke-miterlimit="10" width="5.024" height="5.062"/>
	<g>
		<defs>
			<ellipse id="SVGID_73_" cx="82.606" cy="220.5" rx="3.47" ry="4.857"/>
		</defs>
		<clipPath id="SVGID_74_">
			<use xlink:href="#SVGID_73_" overflow="visible"/>
		</clipPath>
		
			<use xlink:href="#SVGID_73_" overflow="visible" fill-rule="evenodd" clip-rule="evenodd" fill="none" stroke="#111111" stroke-miterlimit="10"/>
	</g>
	<g>
		<defs>
			<ellipse id="SVGID_75_" cx="130.646" cy="220.5" rx="3.47" ry="4.857"/>
		</defs>
		<clipPath id="SVGID_76_">
			<use xlink:href="#SVGID_75_" overflow="visible"/>
		</clipPath>
		
			<use xlink:href="#SVGID_75_" overflow="visible" fill-rule="evenodd" clip-rule="evenodd" fill="none" stroke="#111111" stroke-miterlimit="10"/>
	</g>
	<g>
		<path fill="#111111" d="M134,51c0.552,0,1,0.449,1,1v6c0,0.551-0.448,1-1,1h-6c-0.552,0-1-0.449-1-1v-6c0-0.551,0.448-1,1-1H134     M134,50h-6c-1.104,0-2,0.896-2,2v6c0,1.104,0.896,2,2,2h6c1.104,0,2-0.896,2-2v-6C136,50.896,135.104,50,134,50L134,50z"/>
	</g>
	<g>
		<path fill="#111111" d="M123,51c0.552,0,1,0.449,1,1v6c0,0.551-0.448,1-1,1h-6c-0.552,0-1-0.449-1-1v-6c0-0.551,0.448-1,1-1H123     M123,50h-6c-1.104,0-2,0.896-2,2v6c0,1.104,0.896,2,2,2h6c1.104,0,2-0.896,2-2v-6C125,50.896,124.104,50,123,50L123,50z"/>
	</g>
	<g>
		<path fill="#111111" d="M134,62c0.552,0,1,0.449,1,1v6c0,0.551-0.448,1-1,1h-6c-0.552,0-1-0.449-1-1v-6c0-0.551,0.448-1,1-1H134     M134,61h-6c-1.104,0-2,0.896-2,2v6c0,1.104,0.896,2,2,2h6c1.104,0,2-0.896,2-2v-6C136,61.896,135.104,61,134,61L134,61z"/>
	</g>
	<g>
		<path fill="#111111" d="M123,62c0.552,0,1,0.449,1,1v6c0,0.551-0.448,1-1,1h-6c-0.552,0-1-0.449-1-1v-6c0-0.551,0.448-1,1-1H123     M123,61h-6c-1.104,0-2,0.896-2,2v6c0,1.104,0.896,2,2,2h6c1.104,0,2-0.896,2-2v-6C125,61.896,124.104,61,123,61L123,61z"/>
	</g>
	<g>
		<path fill="#FFC425" d="M85,51c0.552,0,1,0.449,1,1v6c0,0.551-0.448,1-1,1h-6c-0.552,0-1-0.449-1-1v-6c0-0.551,0.448-1,1-1H85     M85,50h-6c-1.104,0-2,0.896-2,2v6c0,1.104,0.896,2,2,2h6c1.104,0,2-0.896,2-2v-6C87,50.896,86.104,50,85,50L85,50z"/>
	</g>
	<g>
		<path fill="#FFC425" d="M68,59.5c-0.827,0-1.5-0.673-1.5-1.5v-6c0-0.827,0.673-1.5,1.5-1.5h6c0.827,0,1.5,0.673,1.5,1.5v6    c0,0.827-0.673,1.5-1.5,1.5H68z"/>
		<path fill="#FFC425" d="M74,51c0.551,0,1,0.449,1,1v6c0,0.551-0.449,1-1,1h-6c-0.551,0-1-0.449-1-1v-6c0-0.551,0.449-1,1-1H74     M74,50h-6c-1.104,0-2,0.896-2,2v6c0,1.104,0.896,2,2,2h6c1.104,0,2-0.896,2-2v-6C76,50.896,75.104,50,74,50L74,50z"/>
	</g>
	<g>
		<path fill="#FFC425" d="M85,62c0.552,0,1,0.449,1,1v6c0,0.551-0.448,1-1,1h-6c-0.552,0-1-0.449-1-1v-6c0-0.551,0.448-1,1-1H85     M85,61h-6c-1.104,0-2,0.896-2,2v6c0,1.104,0.896,2,2,2h6c1.104,0,2-0.896,2-2v-6C87,61.896,86.104,61,85,61L85,61z"/>
	</g>
	<g>
		<path fill="#FFC425" d="M74,62c0.551,0,1,0.449,1,1v6c0,0.551-0.449,1-1,1h-6c-0.551,0-1-0.449-1-1v-6c0-0.551,0.449-1,1-1H74     M74,61h-6c-1.104,0-2,0.896-2,2v6c0,1.104,0.896,2,2,2h6c1.104,0,2-0.896,2-2v-6C76,61.896,75.104,61,74,61L74,61z"/>
	</g>
	<g>
		<path fill="#FFFFFF" d="M35,51c0.551,0,1,0.449,1,1v6c0,0.551-0.449,1-1,1h-6c-0.551,0-1-0.449-1-1v-6c0-0.551,0.449-1,1-1H35     M35,50h-6c-1.104,0-2,0.896-2,2v6c0,1.104,0.896,2,2,2h6c1.104,0,2-0.896,2-2v-6C37,50.896,36.104,50,35,50L35,50z"/>
	</g>
	<g>
		<path fill="#FFFFFF" d="M24,51c0.551,0,1,0.449,1,1v6c0,0.551-0.449,1-1,1h-6c-0.551,0-1-0.449-1-1v-6c0-0.551,0.449-1,1-1H24     M24,50h-6c-1.104,0-2,0.896-2,2v6c0,1.104,0.896,2,2,2h6c1.104,0,2-0.896,2-2v-6C26,50.896,25.104,50,24,50L24,50z"/>
	</g>
	<g>
		<path fill="#FFFFFF" d="M35,62c0.551,0,1,0.449,1,1v6c0,0.551-0.449,1-1,1h-6c-0.551,0-1-0.449-1-1v-6c0-0.551,0.449-1,1-1H35     M35,61h-6c-1.104,0-2,0.896-2,2v6c0,1.104,0.896,2,2,2h6c1.104,0,2-0.896,2-2v-6C37,61.896,36.104,61,35,61L35,61z"/>
	</g>
	<g>
		<path fill="#FFFFFF" d="M24,62c0.551,0,1,0.449,1,1v6c0,0.551-0.449,1-1,1h-6c-0.551,0-1-0.449-1-1v-6c0-0.551,0.449-1,1-1H24     M24,61h-6c-1.104,0-2,0.896-2,2v6c0,1.104,0.896,2,2,2h6c1.104,0,2-0.896,2-2v-6C26,61.896,25.104,61,24,61L24,61z"/>
	</g>
	<g>
		<path fill="#111111" d="M136,212c0.552,0,1,0.449,1,1v15c0,0.552-0.448,1-1,1h-22c-0.552,0-1-0.448-1-1v-15c0-0.551,0.448-1,1-1    H136 M136,211h-22c-1.104,0-2,0.896-2,2v15c0,1.104,0.896,2,2,2h22c1.104,0,2-0.896,2-2v-15C138,211.896,137.104,211,136,211    L136,211z"/>
	</g>
	<g>
		<path fill="#FFFFFF" d="M35,331c0.551,0,1,0.448,1,1v18c0,0.552-0.449,1-1,1H17c-0.551,0-1-0.448-1-1v-18c0-0.552,0.449-1,1-1H35     M35,330H17c-1.104,0-2,0.896-2,2v18c0,1.104,0.896,2,2,2h18c1.104,0,2-0.896,2-2v-18C37,330.896,36.104,330,35,330L35,330z"/>
	</g>
	<g>
		<path fill="#111111" d="M133,412c0.552,0,1,0.448,1,1v16c0,0.552-0.448,1-1,1h-16c-0.552,0-1-0.448-1-1v-16c0-0.552,0.448-1,1-1    H133 M133,411h-16c-1.104,0-2,0.896-2,2v16c0,1.104,0.896,2,2,2h16c1.104,0,2-0.896,2-2v-16C135,411.896,134.104,411,133,411    L133,411z"/>
	</g>
	<rect x="71.054" y="409" fill="#FFC425" width="0.915" height="4"/>
	<rect x="81.054" y="409.001" fill="#FFC425" width="0.931" height="3.941"/>
	<rect x="70.035" y="411.035" fill="#111111" width="0.939" height="2.948"/>
	<rect x="72.035" y="411.063" fill="#111111" width="0.939" height="2.892"/>
	<rect x="70.03" y="413.011" fill="#111111" width="2.892" height="0.939"/>
	<rect x="80.043" y="411.035" fill="#111111" width="0.939" height="2.948"/>
	<rect x="82.043" y="411.063" fill="#111111" width="0.939" height="2.892"/>
	<rect x="80.038" y="413.011" fill="#111111" width="2.892" height="0.939"/>
	<rect x="21.054" y="409" fill="#FFFFFF" width="0.915" height="4"/>
	<rect x="31.054" y="409.001" fill="#FFFFFF" width="0.931" height="3.941"/>
	<rect x="27.491" y="416.436" fill="none" stroke="#FFFFFF" stroke-miterlimit="10" width="5.024" height="5.062"/>
	<g>
		<path fill="#FFFFFF" d="M34,412c0.551,0,1,0.448,1,1v16c0,0.552-0.449,1-1,1H18c-0.551,0-1-0.448-1-1v-16c0-0.552,0.449-1,1-1H34     M34,411H18c-1.104,0-2,0.896-2,2v16c0,1.104,0.896,2,2,2h16c1.104,0,2-0.896,2-2v-16C36,411.896,35.104,411,34,411L34,411z"/>
	</g>
	<g>
		<path fill="#111111" d="M135,374c0.552,0,1,0.448,1,1v12c0,0.552-0.448,1-1,1h-7c-0.812,0-1.47,0.129-2,0.339V375    c0-0.806,0.55-0.988,1-1H135 M135,373h-8c0,0-2,0-2,2v16c0,0,0-2,3-2s7,0,7,0c1.104,0,2-0.896,2-2v-12    C137,373.896,136.104,373,135,373L135,373z"/>
	</g>
	<g>
		<path fill="#111111" d="M123.992,374c0.461,0.013,1.008,0.197,1.008,1v13.339c-0.53-0.21-1.188-0.339-2-0.339h-7    c-0.552,0-1-0.448-1-1v-12c0-0.552,0.448-1,1-1H123.992 M124,373h-8c-1.104,0-2,0.896-2,2v12c0,1.104,0.896,2,2,2c0,0,4,0,7,0    s3,2,3,2v-16C126,373,124,373,124,373L124,373z"/>
	</g>
	<g>
		<path fill="#FFFFFF" d="M36,374c0.551,0,1,0.448,1,1v12c0,0.552-0.449,1-1,1h-7c-0.811,0-1.47,0.129-2,0.339V375    c0-0.806,0.55-0.988,1-1H36 M36,373h-8c0,0-2,0-2,2v16c0,0,0-2,3-2s7,0,7,0c1.104,0,2-0.896,2-2v-12C38,373.896,37.104,373,36,373    L36,373z"/>
	</g>
	<g>
		<path fill="#FFFFFF" d="M24.992,374c0.46,0.013,1.008,0.197,1.008,1v13.339c-0.53-0.21-1.189-0.339-2-0.339h-7    c-0.551,0-1-0.448-1-1v-12c0-0.552,0.449-1,1-1H24.992 M25,373h-8c-1.104,0-2,0.896-2,2v12c0,1.104,0.896,2,2,2c0,0,4,0,7,0    s3,2,3,2v-16C27,373,25,373,25,373L25,373z"/>
	</g>
	<rect x="26" y="373" opacity="0.3" fill="#111111" stroke="#FFFFFF" stroke-miterlimit="10" width="1" height="18"/>
	<rect x="119" y="457" width="17" height="1"/>
	<rect x="116" y="460" width="4" height="1"/>
	<rect x="118" y="463" width="12" height="1"/>
	<rect x="116" y="454" width="12" height="1"/>
	<rect x="116" y="451" width="7" height="1"/>
	<rect x="126" y="466" width="7" height="1"/>
	<rect x="126" y="469" width="10" height="1"/>
	<rect x="70" y="457" fill="#FFC425" width="17" height="1"/>
	<rect x="67" y="460" fill="#FFC425" width="4" height="1"/>
	<rect x="69" y="463" fill="#FFC425" width="12" height="1"/>
	<rect x="67" y="454" fill="#FFC425" width="12" height="1"/>
	<rect x="67" y="451" fill="#FFC425" width="7" height="1"/>
	<rect x="77" y="466" fill="#FFC425" width="7" height="1"/>
	<rect x="77" y="469" fill="#FFC425" width="10" height="1"/>
	<rect x="20" y="457" fill="#FFFFFF" width="17" height="1"/>
	<rect x="17" y="460" fill="#FFFFFF" width="4" height="1"/>
	<rect x="19" y="463" fill="#FFFFFF" width="12" height="1"/>
	<rect x="17" y="454" fill="#FFFFFF" width="12" height="1"/>
	<rect x="17" y="451" fill="#FFFFFF" width="7" height="1"/>
	<rect x="27" y="466" fill="#FFFFFF" width="7" height="1"/>
	<rect x="27" y="469" fill="#FFFFFF" width="10" height="1"/>
	<g>
		<defs>
			<path id="SVGID_77_" d="M76.096,267.947c5.812,1.831-0.417,7.41,4.904,3.938s3.936-2.662,5.688-3.691     c2.749-1.612,4.312-3.675,4.312-6.703c0-4.689-4.478-8.49-10-8.49c-0.444,0-0.883,0.024-1.312,0.072     C74.785,253.618,71,257.179,71,261.49C71,264.666,72.878,266.933,76.096,267.947z"/>
		</defs>
		<use xlink:href="#SVGID_77_" overflow="visible" fill-rule="evenodd" clip-rule="evenodd" fill="#111111"/>
		<clipPath id="SVGID_78_">
			<use xlink:href="#SVGID_77_" overflow="visible"/>
		</clipPath>
		<path clip-path="url(#SVGID_78_)" fill="#111111" stroke="#111111" stroke-miterlimit="10" d="M76.096,267.947    c5.812,1.832-0.417,7.41,4.904,3.938s3.936-2.662,5.688-3.691c2.749-1.612,4.312-3.675,4.312-6.703c0-4.689-4.478-8.49-10-8.49    c-0.444,0-0.883,0.024-1.312,0.072C74.785,253.618,71,257.179,71,261.49C71,264.666,72.878,266.933,76.096,267.947z"/>
		
			<use xlink:href="#SVGID_77_" overflow="visible" fill-rule="evenodd" clip-rule="evenodd" fill="none" stroke="#111111" stroke-miterlimit="10"/>
	</g>
	<g>
		<defs>
			<path id="SVGID_79_" d="M77.096,267.947c5.812,1.831-0.417,7.41,4.904,3.938s3.936-2.662,5.688-3.691     c2.749-1.612,4.312-3.675,4.312-6.703c0-4.689-4.478-8.49-10-8.49c-0.444,0-0.883,0.024-1.312,0.072     C75.785,253.618,72,257.179,72,261.49C72,264.666,73.878,266.933,77.096,267.947z"/>
		</defs>
		<use xlink:href="#SVGID_79_" overflow="visible" fill-rule="evenodd" clip-rule="evenodd" fill="#FFC425"/>
		<clipPath id="SVGID_80_">
			<use xlink:href="#SVGID_79_" overflow="visible"/>
		</clipPath>
		<path clip-path="url(#SVGID_80_)" fill="#FFC425" stroke="#FFC425" stroke-miterlimit="10" d="M77.096,267.947    c5.812,1.832-0.417,7.41,4.904,3.938s3.936-2.662,5.688-3.691c2.749-1.612,4.312-3.675,4.312-6.703c0-4.689-4.478-8.49-10-8.49    c-0.444,0-0.883,0.024-1.312,0.072C75.785,253.618,72,257.179,72,261.49C72,264.666,73.878,266.933,77.096,267.947z"/>
		
			<use xlink:href="#SVGID_79_" overflow="visible" fill-rule="evenodd" clip-rule="evenodd" fill="none" stroke="#FFC425" stroke-miterlimit="10"/>
	</g>
	<g>
		<path fill="#111111" d="M125.131,194.001c-0.431,0-0.834-0.249-1.135-0.702l-1.344-2.02c-0.237-0.357-0.664-0.58-1.11-0.58    c-0.227,0-0.444,0.058-0.633,0.167l-3.234,1.871c-0.606,0.351-1.134,0.312-1.399-0.053c-0.133-0.184-0.25-0.532-0.049-1.14    l1.41-4.278c0.098-0.296,0.072-0.583-0.071-0.807c-0.14-0.221-0.38-0.362-0.677-0.399l-2.751-0.334    c-0.783-0.095-1.021-0.491-1.092-0.72s-0.103-0.69,0.493-1.221l2.267-2.021c0.232-0.207,0.361-0.48,0.361-0.77    c0-0.288-0.129-0.561-0.361-0.769l-2.267-2.02c-0.426-0.379-0.612-0.838-0.514-1.261c0.102-0.425,0.461-0.743,1.015-0.891    l2.029-0.546c0.666-0.179,1.196-0.921,1.158-1.621l-0.114-2.12c-0.023-0.47,0.1-0.862,0.358-1.135    c0.365-0.385,0.966-0.461,1.562-0.188l2.1,0.965c0.165,0.076,0.345,0.114,0.533,0.114c0.498,0,0.973-0.267,1.209-0.679    l1.194-2.074c0.281-0.489,0.694-0.77,1.134-0.77c0.444,0,0.858,0.284,1.137,0.782l1.284,2.292c0.208,0.37,0.579,0.59,0.994,0.59    c0.208,0,0.415-0.06,0.598-0.171l3.546-2.194c0.607-0.375,1.124-0.349,1.378,0.013c0.184,0.262,0.189,0.641,0.014,1.129    l-1.595,4.442c-0.104,0.288-0.087,0.563,0.046,0.774c0.131,0.206,0.365,0.335,0.659,0.363l3.007,0.284    c0.79,0.076,1.03,0.462,1.104,0.687c0.074,0.225,0.108,0.682-0.49,1.213l-2.266,2.02c-0.232,0.208-0.36,0.481-0.36,0.769    c0,0.29,0.127,0.562,0.36,0.771l2.266,2.02c0.426,0.379,0.612,0.838,0.514,1.259c-0.1,0.42-0.47,0.745-1.016,0.893l-2.027,0.546    c-0.666,0.179-1.197,0.922-1.159,1.62l0.114,2.123c0.023,0.464-0.097,0.852-0.35,1.12c-0.212,0.222-0.494,0.34-0.817,0.34    c-0.001,0-0.001,0-0.001,0c-0.237,0-0.488-0.065-0.742-0.192l-2.277-1.139c-0.167-0.083-0.348-0.125-0.535-0.125    c-0.46,0-0.895,0.263-1.104,0.667l-1.183,2.276C126.029,193.699,125.602,194.001,125.131,194.001z M121.542,189.912    c0.708,0,1.385,0.356,1.767,0.932l1.344,2.019c0.148,0.223,0.322,0.35,0.479,0.35c0.167,0,0.339-0.146,0.472-0.402l1.181-2.276    c0.351-0.674,1.041-1.092,1.805-1.092c0.312,0,0.61,0.069,0.887,0.208l2.278,1.139c0.142,0.071,0.276,0.108,0.391,0.108l0,0    c0.105,0,0.186-0.03,0.245-0.094c0.099-0.105,0.147-0.294,0.135-0.536l-0.114-2.123c-0.058-1.061,0.725-2.149,1.741-2.422    l2.027-0.546c0.254-0.069,0.423-0.186,0.453-0.312c0.031-0.129-0.069-0.312-0.271-0.49l-2.266-2.021    c-0.402-0.359-0.625-0.841-0.625-1.358c0-0.517,0.223-0.999,0.625-1.357l2.266-2.02c0.251-0.222,0.272-0.363,0.266-0.381    c-0.005-0.018-0.104-0.115-0.429-0.147l-3.007-0.285c-0.542-0.052-0.986-0.31-1.25-0.726c-0.263-0.414-0.308-0.948-0.122-1.462    l1.595-4.442c0.061-0.169,0.079-0.285,0.081-0.352c-0.062,0.015-0.165,0.052-0.316,0.146l-3.547,2.193    c-0.306,0.19-0.656,0.291-1.012,0.291c-0.693,0-1.338-0.381-1.681-0.994l-1.285-2.293c-0.133-0.237-0.301-0.378-0.449-0.378    c-0.149,0-0.313,0.136-0.45,0.373l-1.195,2.076c-0.374,0.652-1.117,1.074-1.892,1.074c-0.303,0-0.593-0.063-0.861-0.187    l-2.1-0.965c-0.282-0.128-0.53-0.125-0.662,0.014c-0.105,0.11-0.156,0.306-0.144,0.55l0.114,2.121    c0.058,1.062-0.724,2.151-1.741,2.424l-2.027,0.546c-0.254,0.068-0.423,0.185-0.453,0.312c-0.031,0.129,0.07,0.313,0.271,0.491    l2.267,2.02c0.402,0.358,0.624,0.84,0.624,1.357c0,0.517-0.222,1-0.624,1.358l-2.267,2.02c-0.231,0.206-0.278,0.356-0.266,0.398    c0.013,0.041,0.136,0.136,0.436,0.173l2.751,0.334c0.535,0.066,0.979,0.335,1.246,0.758c0.27,0.423,0.325,0.961,0.155,1.477    l-1.412,4.279c-0.074,0.23-0.072,0.352-0.064,0.404c0.062-0.004,0.179-0.029,0.371-0.14l3.234-1.873    C120.823,190.006,121.178,189.912,121.542,189.912z"/>
	</g>
	<rect x="124.012" y="176.001" fill-rule="evenodd" clip-rule="evenodd" fill="#111111" width="1.971" height="6.939"/>
	<rect x="124.041" y="185.018" fill-rule="evenodd" clip-rule="evenodd" fill="#111111" width="1.913" height="1.887"/>
	<g>
		<path fill="#FFFFFF" d="M26.131,194.001c-0.431,0-0.834-0.249-1.135-0.702l-1.344-2.02c-0.237-0.357-0.664-0.58-1.11-0.58    c-0.227,0-0.444,0.058-0.633,0.167l-3.234,1.871c-0.606,0.351-1.134,0.312-1.399-0.053c-0.133-0.184-0.25-0.532-0.049-1.14    l1.41-4.278c0.098-0.296,0.072-0.583-0.071-0.807c-0.14-0.221-0.38-0.362-0.677-0.399l-2.751-0.334    c-0.783-0.095-1.021-0.491-1.092-0.72s-0.103-0.69,0.493-1.221l2.267-2.021c0.232-0.207,0.361-0.48,0.361-0.77    c0-0.288-0.129-0.561-0.361-0.769l-2.267-2.02c-0.426-0.379-0.612-0.838-0.514-1.261c0.102-0.425,0.461-0.743,1.015-0.891    l2.029-0.546c0.666-0.179,1.196-0.921,1.158-1.621l-0.114-2.12c-0.023-0.47,0.1-0.862,0.358-1.135    c0.365-0.385,0.966-0.461,1.562-0.188l2.1,0.965c0.165,0.076,0.345,0.114,0.533,0.114c0.498,0,0.973-0.267,1.209-0.679    l1.194-2.074c0.281-0.489,0.694-0.77,1.134-0.77c0.444,0,0.858,0.284,1.137,0.782l1.284,2.292c0.208,0.37,0.579,0.59,0.994,0.59    c0.208,0,0.415-0.06,0.598-0.171l3.546-2.194c0.607-0.375,1.124-0.349,1.378,0.013c0.184,0.262,0.189,0.641,0.014,1.129    l-1.595,4.442c-0.104,0.288-0.087,0.563,0.046,0.774c0.131,0.206,0.365,0.335,0.659,0.363l3.007,0.284    c0.79,0.076,1.03,0.462,1.104,0.687c0.074,0.225,0.108,0.682-0.49,1.213l-2.266,2.02c-0.232,0.208-0.36,0.481-0.36,0.769    c0,0.29,0.127,0.562,0.36,0.771l2.266,2.02c0.426,0.379,0.612,0.838,0.514,1.259c-0.1,0.42-0.47,0.745-1.016,0.893l-2.027,0.546    c-0.666,0.179-1.197,0.922-1.159,1.62l0.114,2.123c0.023,0.464-0.097,0.852-0.35,1.12c-0.212,0.222-0.494,0.34-0.817,0.34    c-0.001,0-0.001,0-0.001,0c-0.237,0-0.488-0.065-0.742-0.192l-2.277-1.139c-0.167-0.083-0.348-0.125-0.535-0.125    c-0.46,0-0.895,0.263-1.104,0.667l-1.183,2.276C27.03,193.699,26.602,194.001,26.131,194.001z M22.542,189.912    c0.708,0,1.385,0.356,1.767,0.932l1.344,2.019c0.148,0.223,0.322,0.35,0.479,0.35c0.167,0,0.339-0.146,0.472-0.402l1.181-2.276    c0.351-0.674,1.041-1.092,1.805-1.092c0.312,0,0.61,0.069,0.887,0.208l2.278,1.139c0.142,0.071,0.276,0.108,0.391,0.108l0,0    c0.105,0,0.186-0.03,0.245-0.094c0.099-0.105,0.147-0.294,0.135-0.536l-0.114-2.123c-0.058-1.061,0.725-2.149,1.741-2.422    l2.027-0.546c0.254-0.069,0.423-0.186,0.453-0.312c0.031-0.129-0.069-0.312-0.271-0.49l-2.266-2.021    c-0.402-0.359-0.625-0.841-0.625-1.358c0-0.517,0.223-0.999,0.625-1.357l2.266-2.02c0.251-0.222,0.272-0.363,0.266-0.381    c-0.005-0.018-0.104-0.115-0.429-0.147l-3.007-0.285c-0.542-0.052-0.986-0.31-1.25-0.726c-0.263-0.414-0.308-0.948-0.122-1.462    l1.595-4.442c0.061-0.169,0.079-0.285,0.081-0.352c-0.062,0.015-0.165,0.052-0.316,0.146l-3.547,2.193    c-0.306,0.19-0.656,0.291-1.012,0.291c-0.693,0-1.338-0.381-1.681-0.994l-1.285-2.293c-0.133-0.237-0.301-0.378-0.449-0.378    c-0.149,0-0.313,0.136-0.45,0.373l-1.195,2.076c-0.374,0.652-1.117,1.074-1.892,1.074c-0.303,0-0.593-0.063-0.861-0.187    l-2.1-0.965c-0.282-0.128-0.53-0.125-0.662,0.014c-0.105,0.11-0.156,0.306-0.144,0.55l0.114,2.121    c0.058,1.062-0.724,2.151-1.741,2.424l-2.027,0.546c-0.254,0.068-0.423,0.185-0.453,0.312c-0.031,0.129,0.07,0.313,0.271,0.491    l2.267,2.02c0.402,0.358,0.624,0.84,0.624,1.357c0,0.517-0.222,1-0.624,1.358l-2.267,2.02c-0.231,0.206-0.278,0.356-0.266,0.398    c0.013,0.041,0.136,0.136,0.436,0.173l2.751,0.334c0.535,0.066,0.979,0.335,1.246,0.758c0.27,0.423,0.325,0.961,0.155,1.477    l-1.412,4.279c-0.074,0.23-0.072,0.352-0.064,0.404c0.062-0.004,0.179-0.029,0.371-0.14l3.234-1.873    C21.824,190.006,22.178,189.912,22.542,189.912z"/>
	</g>
	<rect x="25.012" y="176.001" fill-rule="evenodd" clip-rule="evenodd" fill="#FFFFFF" width="1.971" height="6.939"/>
	<rect x="25.042" y="185.018" fill-rule="evenodd" clip-rule="evenodd" fill="#FFFFFF" width="1.913" height="1.887"/>
	<g>
		<path fill="#FFC425" d="M76.057,194.001c-0.431,0-0.834-0.249-1.135-0.702l-1.344-2.02c-0.237-0.357-0.664-0.58-1.11-0.58    c-0.227,0-0.444,0.058-0.633,0.167l-3.234,1.871c-0.606,0.351-1.134,0.312-1.399-0.053c-0.133-0.184-0.25-0.532-0.049-1.14    l1.41-4.278c0.098-0.296,0.072-0.583-0.071-0.807c-0.14-0.221-0.38-0.362-0.677-0.399l-2.751-0.334    c-0.783-0.095-1.021-0.491-1.092-0.72s-0.103-0.69,0.493-1.221l2.267-2.021c0.232-0.207,0.361-0.48,0.361-0.77    c0-0.288-0.129-0.561-0.361-0.769l-2.267-2.02c-0.426-0.379-0.612-0.838-0.514-1.261c0.102-0.425,0.461-0.743,1.015-0.891    l2.029-0.546c0.666-0.179,1.196-0.921,1.158-1.621l-0.114-2.12c-0.023-0.47,0.1-0.862,0.358-1.135    c0.365-0.385,0.966-0.461,1.562-0.188l2.1,0.965c0.165,0.076,0.345,0.114,0.533,0.114c0.498,0,0.973-0.267,1.209-0.679    l1.194-2.074c0.281-0.489,0.694-0.77,1.134-0.77c0.444,0,0.858,0.284,1.137,0.782l1.284,2.292c0.208,0.37,0.579,0.59,0.994,0.59    c0.208,0,0.415-0.06,0.598-0.171l3.546-2.194c0.607-0.375,1.124-0.349,1.378,0.013c0.184,0.262,0.189,0.641,0.014,1.129    l-1.595,4.442c-0.104,0.288-0.087,0.563,0.046,0.774c0.131,0.206,0.365,0.335,0.659,0.363l3.007,0.284    c0.79,0.076,1.03,0.462,1.104,0.687c0.074,0.225,0.108,0.682-0.49,1.213l-2.266,2.02c-0.232,0.208-0.36,0.481-0.36,0.769    c0,0.29,0.127,0.562,0.36,0.771l2.266,2.02c0.426,0.379,0.612,0.838,0.514,1.259c-0.1,0.42-0.47,0.745-1.016,0.893l-2.027,0.546    c-0.666,0.179-1.197,0.922-1.159,1.62l0.114,2.123c0.023,0.464-0.097,0.852-0.35,1.12c-0.212,0.222-0.494,0.34-0.817,0.34    c-0.001,0-0.001,0-0.001,0c-0.237,0-0.488-0.065-0.742-0.192l-2.277-1.139c-0.167-0.083-0.348-0.125-0.535-0.125    c-0.46,0-0.895,0.263-1.104,0.667l-1.183,2.276C76.955,193.699,76.527,194.001,76.057,194.001z"/>
	</g>
	<rect x="75.015" y="176.036" fill-rule="evenodd" clip-rule="evenodd" fill="#111111" width="1.971" height="6.939"/>
	<rect x="75.044" y="185.053" fill-rule="evenodd" clip-rule="evenodd" fill="#111111" width="1.913" height="1.887"/>
	<rect x="76.142" y="373" opacity="0.3" fill="#111111" width="0.847" height="18"/>
	<g>
		<defs>
			<circle id="SVGID_81_" cx="76" cy="21.25" r="11"/>
		</defs>
		<clipPath id="SVGID_82_">
			<use xlink:href="#SVGID_81_" overflow="visible"/>
		</clipPath>
		<circle clip-path="url(#SVGID_82_)" fill="none" stroke="#FFC425" stroke-miterlimit="10" cx="76" cy="21.25" r="11"/>
		
			<use xlink:href="#SVGID_81_" overflow="visible" fill-rule="evenodd" clip-rule="evenodd" fill="none" stroke="#FFC425" stroke-miterlimit="10"/>
	</g>
	<g>
		<path fill="none" stroke="#111111" stroke-width="1.35" stroke-miterlimit="10" d="M127.294,100.492    c-1.071-1.334-3.911-4.18-4.743-6.699c-0.837-2.536,0.343-4.742,2.539-4.742h-0.113h0.098h-0.113c2.197,0,3.376,2.206,2.539,4.742    c-0.832,2.52-3.672,5.365-4.743,6.699"/>
		<g>
			<path fill="#FFFFFF" d="M124.851,99.922c-0.659-0.766-1.695-2.023-2.304-2.887c0.236-0.125,0.47-0.255,0.689-0.409     c0.585,0.823,1.603,2.055,2.242,2.799C125.271,99.593,125.062,99.759,124.851,99.922z"/>
			<path fill="#FFFFFF" d="M126.679,98.626c-0.643-0.748-1.579-1.969-2.145-2.774c0.213-0.162,0.436-0.31,0.678-0.425     c0.546,0.771,1.467,1.973,2.096,2.703C127.096,98.292,126.886,98.458,126.679,98.626z"/>
		</g>
	</g>
	<g>
		<path fill="none" stroke="#111111" stroke-width="1.35" stroke-miterlimit="10" d="M122.757,99.559    c1.071,1.334,3.911,4.18,4.743,6.699c0.837,2.536-0.343,4.742-2.539,4.742h0.113h-0.098h0.113c-2.197,0-3.376-2.206-2.539-4.742    c0.832-2.52,3.672-5.365,4.743-6.699"/>
		<g>
			<path fill="#FFFFFF" d="M125.2,100.129c0.659,0.766,1.695,2.023,2.304,2.887c-0.236,0.125-0.47,0.255-0.689,0.409     c-0.585-0.823-1.603-2.055-2.242-2.799C124.779,100.458,124.988,100.292,125.2,100.129z"/>
			<path fill="#FFFFFF" d="M123.372,101.425c0.643,0.748,1.579,1.969,2.145,2.774c-0.213,0.162-0.436,0.31-0.678,0.425     c-0.546-0.771-1.467-1.973-2.096-2.703C122.955,101.759,123.165,101.592,123.372,101.425z"/>
		</g>
	</g>
	<g>
		<path fill="none" stroke="#111111" stroke-width="1.35" stroke-miterlimit="10" d="M125.491,97.757    c-1.333,1.071-4.179,3.91-6.699,4.743c-2.535,0.837-4.741-0.343-4.741-2.54v0.113v-0.097v0.113c0-2.197,2.206-3.377,4.741-2.54    c2.521,0.833,5.366,3.672,6.699,4.743"/>
		<g>
			<path fill="#FFFFFF" d="M124.922,100.201c-0.767,0.659-2.023,1.696-2.887,2.303c-0.125-0.237-0.255-0.47-0.409-0.689     c0.824-0.584,2.055-1.602,2.8-2.243C124.594,99.779,124.76,99.989,124.922,100.201z"/>
			<path fill="#FFFFFF" d="M123.626,98.372c-0.748,0.644-1.969,1.579-2.773,2.145c-0.162-0.214-0.311-0.436-0.426-0.679     c0.772-0.545,1.974-1.466,2.703-2.094C123.292,97.956,123.458,98.165,123.626,98.372z"/>
		</g>
	</g>
	<g>
		<path fill="none" stroke="#111111" stroke-width="1.35" stroke-miterlimit="10" d="M124.56,102.293    c1.333-1.071,4.179-3.91,6.699-4.743c2.535-0.837,4.741,0.343,4.741,2.54v-0.113v0.097v-0.113c0,2.197-2.206,3.377-4.741,2.54    c-2.521-0.833-5.366-3.672-6.699-4.743"/>
		<g>
			<path fill="#FFFFFF" d="M125.129,99.85c0.767-0.659,2.023-1.696,2.887-2.303c0.125,0.237,0.255,0.47,0.409,0.689     c-0.824,0.584-2.055,1.602-2.8,2.243C125.457,100.271,125.291,100.062,125.129,99.85z"/>
			<path fill="#FFFFFF" d="M126.425,101.679c0.748-0.644,1.969-1.579,2.773-2.145c0.162,0.214,0.311,0.436,0.426,0.679     c-0.772,0.546-1.974,1.466-2.703,2.095C126.759,102.095,126.593,101.886,126.425,101.679z"/>
		</g>
	</g>
	<g>
		<path fill="none" stroke="#FFC425" stroke-width="1.35" stroke-miterlimit="10" d="M78.243,100.492    c-1.071-1.334-3.911-4.18-4.743-6.699c-0.837-2.536,0.343-4.742,2.539-4.742h-0.113h0.098H75.91c2.197,0,3.376,2.206,2.539,4.742    c-0.832,2.52-3.672,5.365-4.743,6.699"/>
		<g>
			<path fill="#111111" d="M75.8,99.922c-0.659-0.766-1.695-2.023-2.304-2.887c0.236-0.125,0.47-0.255,0.689-0.409     c0.585,0.823,1.603,2.055,2.242,2.799C76.221,99.593,76.012,99.759,75.8,99.922z"/>
			<path fill="#111111" d="M77.628,98.626c-0.643-0.748-1.579-1.969-2.145-2.774c0.213-0.162,0.436-0.31,0.678-0.425     c0.546,0.771,1.467,1.973,2.096,2.703C78.045,98.292,77.835,98.458,77.628,98.626z"/>
		</g>
	</g>
	<g>
		<path fill="none" stroke="#FFC425" stroke-width="1.35" stroke-miterlimit="10" d="M73.706,99.559    c1.071,1.334,3.911,4.18,4.743,6.699c0.837,2.536-0.343,4.742-2.539,4.742h0.113h-0.098h0.113c-2.197,0-3.376-2.206-2.539-4.742    c0.832-2.52,3.672-5.365,4.743-6.699"/>
		<g>
			<path fill="#111111" d="M76.149,100.129c0.659,0.766,1.695,2.023,2.304,2.887c-0.236,0.125-0.47,0.255-0.689,0.409     c-0.585-0.823-1.603-2.055-2.242-2.799C75.729,100.458,75.938,100.292,76.149,100.129z"/>
			<path fill="#111111" d="M74.321,101.425c0.643,0.748,1.579,1.969,2.145,2.774c-0.213,0.162-0.436,0.31-0.678,0.425     c-0.546-0.771-1.467-1.973-2.096-2.703C73.904,101.759,74.114,101.592,74.321,101.425z"/>
		</g>
	</g>
	<g>
		<path fill="none" stroke="#FFC425" stroke-width="1.35" stroke-miterlimit="10" d="M76.44,97.757    c-1.333,1.071-4.179,3.91-6.699,4.743c-2.535,0.837-4.741-0.343-4.741-2.54v0.113v-0.097v0.113c0-2.197,2.206-3.377,4.741-2.54    c2.521,0.833,5.366,3.672,6.699,4.743"/>
		<g>
			<path fill="#111111" d="M75.871,100.201c-0.767,0.659-2.023,1.696-2.887,2.303c-0.125-0.237-0.255-0.47-0.409-0.689     c0.824-0.584,2.055-1.602,2.8-2.243C75.543,99.779,75.709,99.989,75.871,100.201z"/>
			<path fill="#111111" d="M74.575,98.372c-0.748,0.644-1.969,1.579-2.773,2.145c-0.162-0.214-0.311-0.436-0.426-0.679     c0.772-0.545,1.974-1.466,2.703-2.094C74.241,97.956,74.407,98.165,74.575,98.372z"/>
		</g>
	</g>
	<g>
		<path fill="none" stroke="#FFC425" stroke-width="1.35" stroke-miterlimit="10" d="M75.509,102.293    c1.333-1.071,4.179-3.91,6.699-4.743c2.535-0.837,4.741,0.343,4.741,2.54v-0.113v0.097v-0.113c0,2.197-2.206,3.377-4.741,2.54    c-2.521-0.833-5.366-3.672-6.699-4.743"/>
		<g>
			<path fill="#111111" d="M76.078,99.85c0.767-0.659,2.023-1.696,2.887-2.303c0.125,0.237,0.255,0.47,0.409,0.689     c-0.824,0.584-2.055,1.602-2.8,2.243C76.406,100.271,76.24,100.062,76.078,99.85z"/>
			<path fill="#111111" d="M77.374,101.679c0.748-0.644,1.969-1.579,2.773-2.145c0.162,0.214,0.311,0.436,0.426,0.679     c-0.772,0.546-1.974,1.466-2.703,2.095C77.708,102.095,77.542,101.886,77.374,101.679z"/>
		</g>
	</g>
	<g>
		<path fill="none" stroke="#FFFFFF" stroke-width="1.35" stroke-miterlimit="10" d="M28.294,100.492    c-1.071-1.334-3.911-4.18-4.743-6.699c-0.837-2.536,0.343-4.742,2.539-4.742h-0.113h0.098h-0.113c2.197,0,3.376,2.206,2.539,4.742    c-0.832,2.52-3.672,5.365-4.743,6.699"/>
		<g>
			<path fill="#111111" d="M25.851,99.922c-0.659-0.766-1.695-2.023-2.304-2.887c0.236-0.125,0.47-0.255,0.689-0.409     c0.585,0.823,1.603,2.055,2.242,2.799C26.271,99.593,26.062,99.759,25.851,99.922z"/>
			<path fill="#111111" d="M27.679,98.626c-0.643-0.748-1.579-1.969-2.145-2.774c0.213-0.162,0.436-0.31,0.678-0.425     c0.546,0.771,1.467,1.973,2.096,2.703C28.096,98.292,27.886,98.458,27.679,98.626z"/>
		</g>
	</g>
	<g>
		<path fill="none" stroke="#FFFFFF" stroke-width="1.35" stroke-miterlimit="10" d="M23.757,99.559    c1.071,1.334,3.911,4.18,4.743,6.699c0.837,2.536-0.343,4.742-2.539,4.742h0.113h-0.098h0.113c-2.197,0-3.376-2.206-2.539-4.742    c0.832-2.52,3.672-5.365,4.743-6.699"/>
		<g>
			<path fill="#111111" d="M26.2,100.129c0.659,0.766,1.695,2.023,2.304,2.887c-0.236,0.125-0.47,0.255-0.689,0.409     c-0.585-0.823-1.603-2.055-2.242-2.799C25.779,100.458,25.988,100.292,26.2,100.129z"/>
			<path fill="#111111" d="M24.372,101.425c0.643,0.748,1.579,1.969,2.145,2.774c-0.213,0.162-0.436,0.31-0.678,0.425     c-0.546-0.771-1.467-1.973-2.096-2.703C23.955,101.759,24.165,101.592,24.372,101.425z"/>
		</g>
	</g>
	<g>
		<path fill="none" stroke="#FFFFFF" stroke-width="1.35" stroke-miterlimit="10" d="M26.491,97.757    c-1.333,1.071-4.179,3.91-6.699,4.743c-2.535,0.837-4.741-0.343-4.741-2.54v0.113v-0.097v0.113c0-2.197,2.206-3.377,4.741-2.54    c2.521,0.833,5.366,3.672,6.699,4.743"/>
		<g>
			<path fill="#111111" d="M25.922,100.201c-0.767,0.659-2.023,1.696-2.887,2.303c-0.125-0.237-0.255-0.47-0.409-0.689     c0.824-0.584,2.055-1.602,2.8-2.243C25.594,99.779,25.76,99.989,25.922,100.201z"/>
			<path fill="#111111" d="M24.626,98.372c-0.748,0.644-1.969,1.579-2.773,2.145c-0.162-0.214-0.311-0.436-0.426-0.679     c0.772-0.545,1.974-1.466,2.703-2.094C24.292,97.956,24.458,98.165,24.626,98.372z"/>
		</g>
	</g>
	<g>
		<path fill="none" stroke="#FFFFFF" stroke-width="1.35" stroke-miterlimit="10" d="M25.56,102.293    c1.333-1.071,4.179-3.91,6.699-4.743C34.794,96.713,37,97.893,37,100.09v-0.113v0.097v-0.113c0,2.197-2.206,3.377-4.741,2.54    c-2.521-0.833-5.366-3.672-6.699-4.743"/>
		<g>
			<path fill="#111111" d="M26.129,99.85c0.767-0.659,2.023-1.696,2.887-2.303c0.125,0.237,0.255,0.47,0.409,0.689     c-0.824,0.584-2.055,1.602-2.8,2.243C26.457,100.271,26.291,100.062,26.129,99.85z"/>
			<path fill="#111111" d="M27.425,101.679c0.748-0.644,1.969-1.579,2.773-2.145c0.162,0.214,0.311,0.436,0.426,0.679     c-0.772,0.546-1.974,1.466-2.703,2.095C27.759,102.095,27.593,101.886,27.425,101.679z"/>
		</g>
	</g>
</g>
<g id="Layer_3">
	<path fill="none" stroke="#FFFFFF" stroke-miterlimit="10" d="M20,29l2-4c0,0,4,4,8,0c2,4,2,4,2,4"/>
	<path fill="none" stroke="#000000" stroke-miterlimit="10" d="M119,29l2-4c0,0,4,4,8,0c2,4,2,4,2,4"/>
	<path fill="none" stroke="#000000" stroke-miterlimit="10" d="M70,29l2-4c0,0,4,4,8,0c2,4,2,4,2,4"/>
</g>
</svg>